<svg width="300" height="301" viewBox="0 0 300 301" fill="none" xmlns="http://www.w3.org/2000/svg">
<path d="M298.8 150.539H195.624C195.414 150.539 195.207 150.483 195.025 150.378C194.843 150.272 194.691 150.121 194.586 149.938L184.086 131.763L181.2 126.733C177.893 120.923 173.022 116.159 167.142 112.986C161.865 110.172 155.978 108.701 150 108.701C144.022 108.701 138.135 110.172 132.858 112.986C126.978 116.159 122.107 120.922 118.8 126.733L115.893 131.775L105.417 149.938C105.312 150.121 105.16 150.272 104.978 150.378C104.796 150.483 104.589 150.539 104.379 150.539H0.6C0.44087 150.539 0.288258 150.476 0.175736 150.363C0.0632141 150.25 0 150.097 0 149.938C0 149.472 0 148.844 0 148.463C0.0724928 142.88 0.453073 137.306 1.14 131.766C5.81641 93.9185 24.6928 59.2696 53.9405 34.8465C83.1882 10.4233 120.617 -1.94537 158.636 0.249088C196.655 2.44354 232.417 19.0369 258.669 46.6634C284.921 74.29 299.697 110.881 300 149.016C300 149.058 300 149.181 300 149.343C299.998 149.661 299.871 149.965 299.646 150.189C299.422 150.413 299.117 150.539 298.8 150.539Z" fill="#3A3C3F"/>
<path d="M298.149 169.33C298.235 169.33 298.32 169.347 298.398 169.382C298.477 169.417 298.547 169.469 298.604 169.533C298.661 169.597 298.703 169.673 298.728 169.755C298.753 169.838 298.76 169.924 298.749 170.009C297.144 182.392 293.989 194.523 289.359 206.117C289.27 206.341 289.116 206.532 288.917 206.667C288.719 206.802 288.484 206.874 288.243 206.874H228.114C227.904 206.874 227.697 206.818 227.515 206.713C227.333 206.607 227.182 206.456 227.076 206.273L216.597 188.107L206.286 170.232C206.234 170.14 206.206 170.037 206.206 169.931C206.206 169.826 206.234 169.722 206.286 169.631C206.339 169.54 206.414 169.464 206.506 169.411C206.597 169.358 206.7 169.331 206.805 169.33H298.149Z" fill="#3A3C3F"/>
<path d="M93.2016 169.33C93.3069 169.331 93.4103 169.358 93.5014 169.411C93.5926 169.464 93.6682 169.54 93.7208 169.631C93.7734 169.722 93.801 169.826 93.801 169.931C93.801 170.037 93.7733 170.14 93.7206 170.232L83.4006 188.107L72.9156 206.285C72.8104 206.468 72.6591 206.619 72.477 206.725C72.2948 206.83 72.0881 206.886 71.8776 206.886H11.7577C11.5159 206.885 11.2801 206.812 11.0809 206.674C10.8818 206.537 10.7287 206.343 10.6417 206.117C6.01315 194.523 2.8594 182.392 1.25467 170.009C1.24351 169.924 1.25073 169.838 1.27584 169.755C1.30096 169.673 1.34338 169.597 1.40025 169.533C1.45712 169.469 1.52711 169.417 1.6055 169.382C1.68389 169.347 1.76886 169.33 1.85467 169.33H93.2016Z" fill="#3A3C3F"/>
<path d="M278.822 225.663C278.927 225.663 279.031 225.691 279.122 225.744C279.213 225.797 279.288 225.872 279.341 225.964C279.394 226.055 279.421 226.159 279.421 226.264C279.421 226.369 279.393 226.473 279.341 226.564C275.663 232.813 271.539 238.788 267.002 244.442C263.918 248.284 260.654 251.967 257.21 255.492C257.08 255.623 256.922 255.723 256.747 255.784C256.573 255.844 256.386 255.863 256.203 255.839C256.02 255.816 255.845 255.75 255.691 255.648C255.537 255.545 255.409 255.409 255.317 255.249L249.083 244.433L238.772 226.555C238.719 226.464 238.692 226.36 238.691 226.255C238.691 226.15 238.719 226.046 238.772 225.955C238.824 225.863 238.9 225.788 238.991 225.735C239.082 225.682 239.186 225.654 239.291 225.654L278.822 225.663Z" fill="#3A3C3F"/>
<path d="M60.7095 225.662C60.8148 225.663 60.9182 225.69 61.0093 225.743C61.1004 225.796 61.1761 225.872 61.2287 225.963C61.2813 226.054 61.3089 226.158 61.3089 226.263C61.3089 226.369 61.2812 226.472 61.2285 226.564L50.9175 244.442L44.6835 255.257C44.5912 255.417 44.4631 255.554 44.3094 255.656C44.1556 255.759 43.9804 255.824 43.7972 255.848C43.614 255.872 43.4278 255.852 43.2532 255.792C43.0786 255.732 42.9203 255.632 42.7905 255.5C39.3505 251.981 36.0865 248.298 32.9985 244.451C28.4624 238.799 24.3407 232.826 20.6655 226.579C20.6129 226.487 20.5852 226.384 20.5851 226.278C20.5851 226.173 20.6128 226.069 20.6654 225.978C20.718 225.887 20.7936 225.811 20.8847 225.758C20.9759 225.705 21.0793 225.678 21.1845 225.677L60.7095 225.662Z" fill="#3A3C3F"/>
<path d="M245.866 281.997C245.602 291.842 237.658 300.749 226.633 300.749H73.3723C62.3473 300.749 54.4033 291.842 54.1393 281.997C54.0511 278.458 54.9498 274.965 56.7343 271.909L58.2553 269.271L61.7473 263.221L72.5773 244.444L83.4013 225.662L94.2313 206.885L105.064 188.106L115.894 169.33L126.73 150.538L133.366 139.041C135.112 135.972 137.677 133.452 140.773 131.762C143.609 130.228 146.78 129.426 150.003 129.426C153.225 129.426 156.397 130.228 159.232 131.762C162.329 133.452 164.894 135.972 166.639 139.041L173.275 150.538L184.102 169.318L194.932 188.094L205.765 206.873L216.595 225.65L227.428 244.429L238.258 263.206L241.747 269.256L243.271 271.909C245.056 274.965 245.954 278.458 245.866 281.997Z" fill="#3A3C3F"/>
</svg>
